<?xml version="1.0"?><svg fill="#000000" xmlns="http://www.w3.org/2000/svg" viewBox="0 0 24 24" width="28px" height="28px">    <path d="M 4.9902344 7 C 4.4962344 7.02 3.8870625 7.2871562 3.5390625 7.6601562 C 3.2190625 7.9831562 2.9475781 8.5050938 3.0175781 8.9960938 C 3.5755781 9.0370938 4.1324687 8.7497187 4.4804688 8.3867188 C 4.8224687 8.0127187 5.0482344 7.512 4.9902344 7 z M 8 7 L 8 15 L 9 15 L 9 12 L 10.5 12 C 11.678487 12 12.53425 11.103696 12.792969 10 L 13 10 L 13 9.5 C 13 8.1272727 11.872727 7 10.5 7 L 8 7 z M 9 8 L 10.5 8 C 11.327273 8 12 8.6727273 12 9.5 C 12 10.327273 11.327273 11 10.5 11 L 9 11 L 9 8 z M 4.7402344 9 C 4.0802344 9 3.6087813 9.359375 3.3007812 9.359375 C 2.9877812 9.359375 2.5204688 9.0039062 1.9804688 9.0039062 C 1.3204688 9.0039062 0.67303125 9.4174844 0.33203125 10.021484 C -0.36796875 11.228484 0.151125 13.016 0.828125 14 C 1.160125 14.486 1.5596094 15 2.0996094 15 C 2.5946094 14.982 2.761375 14.699219 3.359375 14.699219 C 3.961375 14.699219 4.1396875 15 4.6796875 15 C 5.2196875 15 5.5479063 14.504578 5.8789062 14.017578 C 6.2569063 13.465578 6.4099219 12.928391 6.4199219 12.900391 C 6.4109219 12.891391 5.3742344 12.492922 5.3652344 11.294922 C 5.3562344 10.292922 6.18175 9.8160625 6.21875 9.7890625 C 5.75275 9.0960625 4.9807812 9 4.8007812 9 L 4.7402344 9 z M 15.625 9 C 14.654762 9 14.044326 9.2956024 13.716797 9.6699219 C 13.389267 10.044241 13.375 10.5 13.375 10.5 L 14.375 10.5 C 14.375 10.5 14.360733 10.45576 14.470703 10.330078 C 14.580677 10.204398 14.845238 10 15.625 10 C 16.569853 10 16.803743 10.273796 16.919922 10.488281 C 17.036101 10.702766 17.005859 10.917969 17.005859 10.917969 L 17 10.958984 L 17 11 L 15.375 11 C 13.923 11.101 13.001953 11.825766 13.001953 13.009766 C 13.001953 14.205766 13.813609 15 14.974609 15 C 15.920712 15 16.564085 14.508723 17 13.894531 L 17 15 L 18 15 L 18 11 L 17.994141 11.082031 C 17.994141 11.082031 18.088901 10.547234 17.798828 10.011719 C 17.508798 9.4762044 16.805147 9 15.625 9 z M 19.005859 9 L 20.970703 14.691406 L 20.634766 15.664062 C 20.565766 15.864063 20.374109 16 20.162109 16 L 19 16 L 19 17 L 20.162109 17 C 20.801109 17 21.372078 16.593281 21.580078 15.988281 L 23.994141 9 L 22.9375 9 L 21.5 13.158203 L 20.0625 9 L 19.005859 9 z M 15.412109 12 L 16.759766 12 C 16.560766 12.771 16.072609 14 14.974609 14 C 14.355609 14 14.001953 13.638766 14.001953 13.009766 C 14.001953 12.267766 14.760109 12.05 15.412109 12 z"/></svg>