<svg xmlns="http://www.w3.org/2000/svg" width="16" height="16" viewBox="0 0 16 16">
    <path fill="#FFF" fill-rule="evenodd" d="M2 1.569h12c1.105 0 2 .895 2 2v9.333c0 1.105-.895 2-2 2H2c-1.105 0-2-.895-2-2V3.569c0-1.105.895-2 2-2zm4.154 9.586c.001-.355-.14-.697-.394-.947-.316-.31-.765-.445-1.2-.36-.085.015-.168.038-.246.073-.082.032-.16.072-.234.12-.071.05-.138.107-.2.167-.251.25-.393.592-.393.947 0 .354.142.692.393.94.249.253.587.394.94.394.354 0 .692-.141.94-.393.065-.058.12-.127.167-.2.052-.074.093-.152.127-.234.035-.078.058-.161.073-.247.018-.085.028-.173.027-.26zm3.787.001c0-.356-.138-.7-.387-.953-.532-.496-1.357-.496-1.89 0-.38.384-.495.961-.288 1.463.206.501.691.828 1.23.832.356-.004.694-.146.948-.396.247-.252.386-.592.387-.946zM9.94 7.683c.002-.09-.008-.18-.027-.268-.015-.085-.04-.168-.073-.248-.032-.082-.075-.157-.127-.228-.045-.075-.1-.144-.16-.208-.53-.499-1.356-.499-1.886 0-.065.062-.12.131-.167.208-.05.072-.091.148-.126.228-.034.08-.059.163-.074.248-.018.089-.028.178-.026.268 0 .355.141.695.393.945.25.251.587.394.94.396.355-.004.693-.146.946-.396.247-.251.385-.591.387-.945zm3.786 3.473c.001-.356-.14-.698-.394-.948-.061-.06-.128-.117-.2-.167-.075-.046-.151-.086-.233-.12-.078-.035-.162-.058-.247-.073-.434-.085-.883.05-1.2.36-.253.25-.394.592-.393.948-.001.086.009.175.027.26.015.085.038.168.073.247.034.081.075.16.127.233.047.074.102.142.167.2.06.064.128.119.2.167.071.047.148.087.226.12.082.034.167.06.254.08.171.035.348.035.52 0 .085-.02.166-.046.246-.08.082-.033.158-.073.233-.12.072-.048.14-.103.2-.167.254-.247.395-.587.394-.94zm0-3.48c.001-.087-.009-.175-.027-.26-.018-.083-.043-.166-.073-.246-.035-.08-.077-.155-.127-.227-.047-.076-.102-.144-.167-.206-.06-.063-.128-.118-.2-.166-.075-.047-.151-.087-.233-.12-.08-.034-.162-.06-.247-.08-.436-.083-.885.055-1.2.366-.064.062-.12.13-.166.206-.052.07-.095.145-.127.227-.065.161-.098.333-.1.506-.001.354.14.696.394.945.061.06.128.117.2.167.071.046.148.086.226.12.082.033.167.06.253.08.172.034.349.034.52 0 .085-.02.167-.047.247-.08.082-.034.158-.074.233-.12.072-.05.139-.107.2-.167.254-.25.395-.59.394-.945z"/>
</svg>
