<svg xmlns="http://www.w3.org/2000/svg" width="16" height="16" viewBox="0 0 16 16">
    <path fill="#FFF" fill-rule="evenodd" d="M8 0c4.418 0 8 3.581 8 8 0 4.418-3.582 8-8 8s-8-3.582-8-8c0-4.419 3.582-8 8-8zm-.135 10.56c-.336 0-.594.094-.775.28-.18.187-.27.44-.27.76 0 .339.09.6.27.787.181.187.439.28.775.28.335 0 .593-.091.774-.273.18-.191.27-.455.27-.793 0-.32-.09-.574-.27-.76-.18-.187-.439-.28-.774-.28zm.167-7.227c-.98 0-1.73.262-2.251.787-.473.476-.732 1.077-.775 1.8L5 6.141h1.755c0-.85.426-1.274 1.277-1.274.405 0 .703.1.897.3.194.199.29.441.29.727 0 .234-.051.43-.154.585-.083.125-.21.26-.38.408l-.137.112-.413.325c-.412.33-.71.641-.89.936-.155.253-.243.585-.265.996l-.006.213v.208h1.678v-.208c0-.269.058-.483.174-.644.097-.133.264-.298.5-.495l.151-.122.542-.429c.654-.511.981-1.17.981-1.976 0-.72-.271-1.31-.813-1.774-.542-.464-1.26-.696-2.155-.696z" opacity=".32"/>
</svg>
