<svg xmlns="http://www.w3.org/2000/svg" width="16" height="16" viewBox="0 0 16 16">
    <path fill="#D4FE49" fill-rule="evenodd" d="M15.707 5.305l-1-1c-.832.83-2.18.83-3.011 0-.832-.833-.832-2.18 0-3.012l-1-1c-.391-.39-1.03-.39-1.421 0L.293 9.275c-.39.39-.39 1.03 0 1.42l1 1c.832-.83 2.18-.83 3.011 0 .832.833.832 2.18 0 3.012l1 1c.391.39 1.03.39 1.421 0l8.982-8.982c.39-.39.39-1.03 0-1.42zM4.6 8.207c-.241.379-.782.379-1.023 0-.122-.191-.122-.443 0-.634.241-.378.782-.38 1.024 0 .121.191.12.444-.001.634zM5.97 9.579c-.24.378-.781.378-1.022 0-.122-.191-.122-.444 0-.634.24-.379.781-.38 1.023 0 .121.191.121.443 0 .634zm1.372 1.371c-.241.379-.782.379-1.023 0-.121-.19-.121-.443 0-.633.241-.38.782-.38 1.024 0 .12.19.12.442-.001.633zm1.372 1.372c-.241.378-.782.378-1.023 0-.122-.191-.122-.443 0-.634.24-.379.782-.38 1.023 0 .121.19.121.443 0 .634z"/>
</svg>
