<?xml version="1.0" encoding="UTF-8"?>
<svg width="24px" height="24px" viewBox="0 0 24 24" version="1.1" xmlns="http://www.w3.org/2000/svg" xmlns:xlink="http://www.w3.org/1999/xlink">
    <!-- Generator: Sketch 63.1 (92452) - https://sketch.com -->
    <title>Icons / ic-arrow</title>
    <desc>Created with Sketch.</desc>
    <g id="Icons-/-ic-arrow" stroke="none" stroke-width="1" fill="none" fill-rule="evenodd">
        <path d="M23.4691683,10.763869 L16.0677896,3.50173905 C15.3858835,2.83275365 14.2490366,2.83275365 13.5671306,3.50173905 C12.8852245,4.17072445 12.8852245,5.28603058 13.5671306,5.95501599 L17.9369175,10.2680287 L1.76842854,10.2680287 C0.783565421,10.2680287 0,11.0367473 0,12.0029494 C0,12.9691515 0.783565421,13.73787 1.76842854,13.73787 L17.9369175,13.73787 L13.5661201,18.0258503 C12.884214,18.6948357 12.884214,19.8101419 13.5661201,20.4791273 C13.9194016,20.8257148 14.3743424,21 14.8292833,21 C15.2842242,21 15.739165,20.8267013 16.0924465,20.4791273 L23.4690672,13.2422775 C23.7976918,12.9198797 24,12.473559 24,12.0030485 C24,11.532538 23.8233542,11.0862173 23.4690672,10.7638195 L23.4691683,10.763869 Z" id="Shape" fill="#E7725D"></path>
    </g>
</svg>