<?xml version="1.0" encoding="UTF-8"?>
<svg width="24px" height="24px" viewBox="0 0 24 24" version="1.1" xmlns="http://www.w3.org/2000/svg" xmlns:xlink="http://www.w3.org/1999/xlink">
    <!-- Generator: Sketch 63.1 (92452) - https://sketch.com -->
    <title>Icons / ic-account</title>
    <desc>Created with Sketch.</desc>
    <g id="Icons-/-ic-account" stroke="none" stroke-width="1" fill="none" fill-rule="evenodd">
        <path d="M15.2087051,16.043331 C15.3062343,15.9910259 15.4366774,15.9910259 15.565856,16.0171784 C19.4563886,16.9184589 22.5363286,19.2623032 23.8980475,22.2748976 C24.2881058,23.0987195 23.5092211,24 22.4074223,24 L22.4074223,24 L1.6248459,24 C0.49010724,24 -0.287480532,23.1248824 0.101313354,22.2748976 C1.46267553,19.2623032 4.54268046,16.9184589 8.43321301,16.0171784 C8.56366905,15.9920301 8.6928477,15.9920301 8.7903639,16.043331 C9.76299703,16.4557467 10.831856,16.6871028 11.9995345,16.6871028 C13.1659162,16.6871028 14.236072,16.455757 15.2087051,16.043331 Z M11.90368,0.12736 C15.6688,0.12736 18.72,3.179872 18.72,6.94368 C18.72,10.7088 15.668736,13.76 11.90368,13.76 C8.13984,13.76 5.08736,10.708736 5.08736,6.94368 C5.08736,3.17984 8.139872,0.12736 11.90368,0.12736 Z" id="Combined-Shape" fill="#E7725D"></path>
    </g>
</svg>