<?xml version="1.0" encoding="UTF-8"?>
<svg width="24px" height="24px" viewBox="0 0 24 24" version="1.1" xmlns="http://www.w3.org/2000/svg" xmlns:xlink="http://www.w3.org/1999/xlink">
    <!-- Generator: Sketch 63.1 (92452) - https://sketch.com -->
    <title>Icons / ic-airplay</title>
    <desc>Created with Sketch.</desc>
    <g id="Icons-/-ic-airplay" stroke="none" stroke-width="1" fill="none" fill-rule="evenodd">
        <path d="M6.44798725,17.7333333 L8.60821044,15.3098039 L5.18852132,15.3098039 C4.81387007,15.3098039 4.55081706,15.0745098 4.55081706,14.6980392 L4.55081706,7.02745098 C4.55081706,6.65098039 4.81387007,6.41568627 5.18852132,6.41568627 L18.8114787,6.41568627 C19.1941012,6.41568627 19.4491829,6.65098039 19.4491829,7.02745098 L19.4491829,14.6980392 C19.4491829,15.0745098 19.1941012,15.3098039 18.8114787,15.3098039 L15.3917896,15.3098039 L17.5759267,17.7333333 L19.7600638,17.7333333 C21.1630132,17.7333333 22,16.9019608 22,15.5529412 L22,6.17254902 C22,4.83137255 21.1630132,4 19.7600638,4 L4.23993623,4 C2.85292945,4 2,4.83137255 2,6.17254902 L2,15.5529412 C2,16.9019608 2.83698685,17.7333333 4.23993623,17.7333333 L6.44798725,17.7333333 Z M17.1853328,20 C17.6317258,20 17.8150658,19.5372549 17.5121562,19.2313725 L12.4105221,13.5294118 C12.1873256,13.3019608 11.8126744,13.3019608 11.5894779,13.5294118 L6.48784376,19.2313725 C6.18493424,19.5372549 6.36827421,20 6.8146672,20 L17.1853328,20 Z" id="Shape" fill="#E7725D"></path>
    </g>
</svg>