<?xml version="1.0" encoding="UTF-8"?>
<svg width="24px" height="24px" viewBox="0 0 24 24" version="1.1" xmlns="http://www.w3.org/2000/svg" xmlns:xlink="http://www.w3.org/1999/xlink">
    <!-- Generator: Sketch 63.1 (92452) - https://sketch.com -->
    <title>Icons / ic-confetti</title>
    <desc>Created with Sketch.</desc>
    <g id="Icons-/-ic-confetti" stroke="none" stroke-width="1" fill="none" fill-rule="evenodd">
        <path d="M8.84984742,6.62852089 L17.3893986,15.1216162 C17.6031538,15.3342086 17.6880001,15.5889933 17.6031538,15.8859703 C17.5607245,16.140755 17.3469755,16.3955397 17.0907971,16.4807397 L3.12825837,21.9156031 C3.04259848,21.9578015 2.91450316,22 2.82885762,22 C2.61508766,22 2.40215223,21.9147943 2.23082015,21.7452035 C2.01706495,21.5326111 1.93221864,21.1504341 2.0603017,20.853457 L7.4832897,6.92549795 C7.56894959,6.67071324 7.82513407,6.45812088 8.08131241,6.41592853 C8.33749075,6.37373619 8.63609222,6.45812699 8.84984742,6.62852089 Z M19.1818333,9.64374502 C20.1208807,9.64374502 21.0175048,10.0259221 21.7436167,10.7480839 C22.0854611,11.0880686 22.0854611,11.597638 21.7436167,11.9368074 C21.4017723,12.2767921 20.8894157,12.2767921 20.5483911,11.9368074 C20.1217004,11.512438 19.6517669,11.2998456 19.1394102,11.2998456 C18.4132983,11.2998456 17.6023402,11.724215 16.8762283,12.4463768 C16.7905684,12.6581742 16.5776268,12.7433538 16.3638716,12.7433538 C16.1501164,12.7433538 15.937181,12.65816 15.7658489,12.4885691 C15.4240045,12.1485844 15.4240045,11.639015 15.7658489,11.2998456 C16.7905623,10.2385144 18.0290308,9.68593737 19.1818333,9.64374502 Z M18.2419663,5.82115911 C18.5838106,6.16114383 18.5838106,6.67071324 18.2419663,7.00988264 L14.8259818,10.4072838 C14.6562647,10.5776716 14.4425136,10.6620685 14.2287584,10.6620685 C14.0150237,10.6620685 13.8020883,10.5768746 13.6307562,10.4072838 C13.2889118,10.0672991 13.2889118,9.5577297 13.6307562,9.2185603 L17.0467406,5.82115911 C17.388585,5.4811744 17.9009417,5.4811744 18.2419663,5.82115911 Z M13.2040655,2.25498853 C13.9301774,2.97715031 14.3144449,3.86889678 14.3144449,4.84502795 C14.3144449,5.99155913 13.7164222,7.22329031 12.6492857,8.24242914 C12.5211966,8.45422657 12.3074414,8.53940619 12.0945059,8.53940619 C11.8807507,8.53940619 11.6678153,8.4542123 11.4964832,8.28462148 C11.1546388,7.94463677 11.1978817,7.43506736 11.4964832,7.09589796 C12.2225951,6.37373619 12.6492857,5.56718972 12.6492857,4.84502795 C12.6492857,4.33545853 12.4355305,3.86808147 12.0088399,3.44371206 C11.6669955,3.10372735 11.6669955,2.59415794 12.0088399,2.25498853 C12.3506843,1.91500382 12.8630409,1.91500382 13.2040655,2.25498853 Z" id="Shape" fill="#E7725D"></path>
    </g>
</svg>