<?xml version="1.0" encoding="UTF-8"?>
<svg width="24px" height="24px" viewBox="0 0 24 24" version="1.1" xmlns="http://www.w3.org/2000/svg" xmlns:xlink="http://www.w3.org/1999/xlink">
    <!-- Generator: Sketch 63.1 (92452) - https://sketch.com -->
    <title>Icons / ic-calendar</title>
    <desc>Created with Sketch.</desc>
    <g id="Icons-/-ic-calendar" stroke="none" stroke-width="1" fill="none" fill-rule="evenodd">
        <path d="M3,2.35303358 L21,2.35303358 C22.6568542,2.35303358 24,3.69617933 24,5.35303358 L24,19.3530336 C24,21.0098878 22.6568542,22.3530336 21,22.3530336 L3,22.3530336 C1.34314575,22.3530336 2.02906125e-16,21.0098878 0,19.3530336 L0,5.35303358 C-2.02906125e-16,3.69617933 1.34314575,2.35303358 3,2.35303358 Z M9.23050611,16.732997 C9.23300835,16.2001614 9.02052214,15.6873448 8.64053898,15.3120678 C8.16556642,14.8467756 7.49308913,14.6441261 6.84064903,14.7717266 C6.71315602,14.7942433 6.58816526,14.8292606 6.47067485,14.8817993 C6.34817994,14.9293302 6.23068952,14.9893681 6.12069304,15.0619131 C6.01319882,15.1369621 5.91320493,15.2220142 5.82071139,15.3120678 C5.44323687,15.6873064 5.23074426,16.2001165 5.23074426,16.732997 C5.23074426,17.2633287 5.44323047,17.7711565 5.82071139,18.1438719 C6.19318781,18.521608 6.70065758,18.7342478 7.23060918,18.7342478 C7.76056078,18.7342478 8.26804975,18.5216144 8.64050698,18.1438719 C8.73799862,18.0563158 8.82049597,17.9537486 8.89048849,17.8436823 C8.96798136,17.7336096 9.03047994,17.6160378 9.08048008,17.493458 C9.13297607,17.3758861 9.16797553,17.2508024 9.19047655,17.1232274 C9.21797567,16.9956461 9.23297635,16.8630631 9.23047411,16.7329778 L9.23050611,16.732997 Z M14.9118363,16.7339665 C14.9118363,16.2006289 14.7040558,15.6848992 14.3310777,15.3049834 C13.5325482,14.560351 12.2959522,14.560351 11.4974227,15.3049834 C10.926693,15.8810913 10.75394,16.7465252 11.0643674,17.4986928 C11.3722636,18.2509248 12.1007063,18.7414856 12.9092325,18.7465091 C13.4424165,18.7414792 13.9505698,18.5276405 14.3310905,18.1527868 C14.701563,17.7754214 14.9093306,17.264728 14.9118363,16.733915 L14.9118363,16.7339665 Z M14.9085966,11.5246877 C14.9110987,11.3889653 14.8960992,11.2557586 14.8686023,11.1225519 C14.8461095,10.9943703 14.8086108,10.8712202 14.7586146,10.7505795 C14.7111205,10.627423 14.6461313,10.5143231 14.5686382,10.408764 C14.501147,10.2956641 14.4186562,10.1926144 14.3286721,10.0971056 C13.5337763,9.34810345 12.2939514,9.34810345 11.4990556,10.0971056 C11.4015718,10.1900987 11.319081,10.2931484 11.2490941,10.408764 C11.1741031,10.5168388 11.1116159,10.6299387 11.0591177,10.7505795 C11.009128,10.8712202 10.9716293,10.9943767 10.9491301,11.1225519 C10.9216331,11.2557586 10.9066401,11.3889653 10.9091357,11.5246877 C10.9091357,12.0575145 11.1216049,12.5677315 11.4990556,12.9422004 C11.8740043,13.3192044 12.3789314,13.5328382 12.9088406,13.535354 C13.4412646,13.5303289 13.9486938,13.316695 14.3286721,12.9422004 C14.6986167,12.5651965 14.9060882,12.0549923 14.9085902,11.5246877 L14.9085966,11.5246877 Z M20.5871032,16.7333038 C20.5896054,16.2003855 20.3771237,15.6874893 19.9971485,15.3121541 C19.9046569,15.2220865 19.8046652,15.1370148 19.6971732,15.0619606 C19.5846833,14.9919023 19.4696911,14.9318615 19.3471988,14.8818189 C19.2297109,14.8292784 19.1047164,14.7942492 18.9772324,14.7717291 C18.3248061,14.644128 17.6523495,14.8467898 17.1773805,15.3121541 C16.7974118,15.6874509 16.5849301,16.2003406 16.5874259,16.7333038 C16.5849301,16.8634029 16.599924,16.9960128 16.6274226,17.1236139 C16.6499231,17.2512151 16.6849219,17.3763119 16.7374167,17.493902 C16.7874158,17.6165008 16.8499067,17.7340909 16.9274043,17.8441806 C16.9974017,17.9542704 17.079891,18.0568471 17.1773805,18.1444167 C17.2673699,18.2394931 17.3698639,18.3220541 17.4773559,18.3946103 C17.5848478,18.4646686 17.6998399,18.5247094 17.8173279,18.574752 C17.9398202,18.6247945 18.0673041,18.6648196 18.1972966,18.6948464 C18.454773,18.7473869 18.719756,18.7473869 18.9772644,18.6948464 C19.1047548,18.664826 19.2272407,18.6247881 19.3472308,18.574752 C19.4697231,18.5247158 19.5847089,18.4646622 19.6972052,18.3946103 C19.8046972,18.3220541 19.9071847,18.2394867 19.9971805,18.1444167 C20.3771493,17.7741287 20.589631,17.2637241 20.5871569,16.733323 L20.5871032,16.7333038 Z M20.5870216,11.5136851 C20.5895238,11.3838555 20.5745234,11.2515203 20.5470246,11.1241834 C20.5195259,10.9993457 20.4820311,10.8745081 20.4370296,10.7546624 C20.3845343,10.6348167 20.3220366,10.5224621 20.2470406,10.4150996 C20.1770426,10.3002458 20.0945528,10.1978816 19.9970624,10.105495 C19.9070723,10.0106155 19.8045776,9.92822563 19.6970848,9.85581965 C19.584594,9.78590646 19.469601,9.72599001 19.3471077,9.67605111 C19.2271166,9.62611859 19.1046234,9.58617003 18.9771385,9.55620541 C18.3222113,9.43136774 17.6497495,9.63860172 17.1772727,10.1055014 C17.0797824,10.1978816 16.9972861,10.3002522 16.9272946,10.415106 C16.8498027,10.5199693 16.7848028,10.6323239 16.7373055,10.7546688 C16.6398152,10.9968593 16.5898157,11.2540258 16.5872918,11.5136915 C16.5848177,12.045506 16.7972947,12.5573398 17.1772727,12.9318975 C17.269765,13.0217786 17.3697576,13.1066741 17.4772503,13.1815729 C17.5847431,13.2514861 17.6997362,13.3114025 17.817225,13.3613414 C17.9397183,13.4112803 18.0672032,13.4512225 18.1971967,13.4811871 C18.4546751,13.5336188 18.7196601,13.5336188 18.9771705,13.4811871 C19.1046618,13.4512289 19.2271486,13.4112739 19.3471397,13.3613414 C19.469633,13.3114089 19.5846196,13.2514797 19.6971168,13.1815729 C19.8046096,13.1066677 19.9046021,13.0217786 19.9970944,12.9318975 C20.3770661,12.5573781 20.5895494,12.0455507 20.5870536,11.5136915 L20.5870216,11.5136851 Z" id="Shape" fill="#E7725D"></path>
    </g>
</svg>