<?xml version="1.0" encoding="UTF-8"?>
<svg width="24px" height="24px" viewBox="0 0 24 24" version="1.1" xmlns="http://www.w3.org/2000/svg" xmlns:xlink="http://www.w3.org/1999/xlink">
    <!-- Generator: Sketch 63.1 (92452) - https://sketch.com -->
    <title>Icons / ic-card</title>
    <desc>Created with Sketch.</desc>
    <g id="Icons-/-ic-card" stroke="none" stroke-width="1" fill="none" fill-rule="evenodd">
        <path d="M5,6 C4.448752,6 4,6.448752 4,7 L4,8 L20,8 L20,7 C20,6.448752 19.551872,6 19,6 L5,6 Z M4,11 L4,16 C4,16.551872 4.448752,17 5,17 L19,17 C19.551872,17 20,16.551872 20,16 L20,11 L4,11 Z M6.5,13 L8.5,13 C8.776256,13 9,13.223744 9,13.5 C9,13.776256 8.776256,14 8.5,14 L6.5,14 C6.223744,14 6,13.776256 6,13.5 C6,13.223744 6.223744,13 6.5,13 Z" id="Shape" fill="#E7725D"></path>
    </g>
</svg>