<?xml version="1.0" encoding="UTF-8"?>
<svg width="24px" height="24px" viewBox="0 0 24 24" version="1.1" xmlns="http://www.w3.org/2000/svg" xmlns:xlink="http://www.w3.org/1999/xlink">
    <!-- Generator: Sketch 63.1 (92452) - https://sketch.com -->
    <title>Icons / ic-collapse</title>
    <desc>Created with Sketch.</desc>
    <g id="Icons-/-ic-collapse" stroke="none" stroke-width="1" fill="none" fill-rule="evenodd">
        <path d="M4.61904762,2 C5.93401131,2 7,3.06598869 7,4.38095238 L7,10.123 L14.2725012,10.1232325 L16.2913973,10.2260691 L14.9090005,8.89947725 L12.6215813,6.55480333 C12.2834411,6.20515897 12.0248633,5.78352901 12.0248633,5.19736053 C12.0248633,4.19984575 12.7309796,3.42857143 13.8249627,3.42857143 C14.2526106,3.42857143 14.7001492,3.63424458 15.0780706,4.01473991 L15.0780706,4.01473991 L21.4728991,10.6271317 C21.7911487,10.9562088 22,11.5012426 22,12.0051418 C22,12.509041 21.7911487,13.0540749 21.4728991,13.3831519 L21.4728991,13.3831519 L15.0681253,19.9852601 C14.7001492,20.3657554 14.2526106,20.5714286 13.8249627,20.5714286 C12.7309796,20.5714286 12.0248633,19.8001543 12.0248633,18.8026395 C12.0248633,18.216471 12.2834411,17.7845574 12.6215813,17.4451967 L12.6215813,17.4451967 L14.9090005,15.1108064 L16.2913973,13.7842146 L14.2725012,13.8870512 L7,13.887 L7,19.6190476 C7,20.9340113 5.93401131,22 4.61904762,22 L4.38095238,22 C3.06598869,22 2,20.9340113 2,19.6190476 L2,4.38095238 C2,3.06598869 3.06598869,2 4.38095238,2 L4.61904762,2 Z" id="Shape" fill="#E7725D"></path>
    </g>
</svg>