<?xml version="1.0" encoding="UTF-8"?>
<svg width="24px" height="24px" viewBox="0 0 24 24" version="1.1" xmlns="http://www.w3.org/2000/svg" xmlns:xlink="http://www.w3.org/1999/xlink">
    <!-- Generator: Sketch 63.1 (92452) - https://sketch.com -->
    <title>Icons / ic-discover</title>
    <desc>Created with Sketch.</desc>
    <g id="Icons-/-ic-discover" stroke="none" stroke-width="1" fill="none" fill-rule="evenodd">
        <path d="M12,0 C18.6186947,0 24,5.38130526 24,12 C24,18.6186947 18.6186947,24 12,24 C5.38130526,24 0,18.6186947 0,12 C0,5.38130526 5.38130526,0 12,0 Z M18.1638821,7.50282947 C18.6187958,6.44195368 17.5579453,5.38110316 16.4970947,5.83604211 L16.4970947,5.83604211 L9.8784,8.71553684 C9.37313684,8.94351158 8.94286484,9.34711579 8.71589053,9.87804632 L8.71589053,9.87804632 L5.86090105,16.5214989 C5.38130526,17.5576926 6.46681263,18.6185432 7.50300632,18.1636042 L7.50300632,18.1636042 L14.1217011,15.2841095 C14.6269642,15.0561347 15.0572362,14.6525305 15.2842105,14.1216 L15.2842105,14.1216 Z M12,10.3578947 C12.9068968,10.3578947 13.6421053,11.0931032 13.6421053,12 C13.6421053,12.9068968 12.9068968,13.6421053 12,13.6421053 C11.0931032,13.6421053 10.3578947,12.9068968 10.3578947,12 C10.3578947,11.0931032 11.0931032,10.3578947 12,10.3578947 Z" id="Shape" fill="#E7725D"></path>
    </g>
</svg>