<?xml version="1.0" encoding="UTF-8"?>
<svg width="24px" height="24px" viewBox="0 0 24 24" version="1.1" xmlns="http://www.w3.org/2000/svg" xmlns:xlink="http://www.w3.org/1999/xlink">
    <!-- Generator: Sketch 63.1 (92452) - https://sketch.com -->
    <title>Icons / ic-fullscreen-off</title>
    <desc>Created with Sketch.</desc>
    <g id="Icons-/-ic-fullscreen-off" stroke="none" stroke-width="1" fill="none" fill-rule="evenodd">
        <path d="M14.9895833,14 L19.7291667,14.0052117 C20.2916667,14.0052117 20.6979167,14.4273616 20.6979167,14.9276873 C20.6979167,15.4436482 20.2708333,15.8188925 19.7239583,15.8188925 L19.7239583,15.8188925 L18.0625,15.8188925 L17.046875,15.771987 L17.8333333,16.4807818 L21.671875,20.3218241 C21.890625,20.5407166 22,20.7960912 22,21.0410423 C22,21.5309446 21.5416667,22 21.0416667,22 C20.796875,22 20.5416667,21.8905537 20.3229167,21.6716612 L20.3229167,21.6716612 L16.484375,17.8306189 L15.7760417,17.0436482 L15.8229167,18.0338762 L15.8229167,19.7224756 C15.8229167,20.2749186 15.4375,20.6918567 14.9322917,20.6918567 C14.421875,20.6918567 14.0052083,20.2644951 14.0052083,19.7224756 L14.0052083,19.7224756 L14,14.9850163 C14,14.3960912 14.3958333,14 14.9895833,14 L14.9895833,14 Z M2.95833333,2 C3.203125,2 3.45833333,2.10944625 3.67708333,2.32833876 L3.67708333,2.32833876 L7.515625,6.16938111 L8.22395833,6.95635179 L8.17708333,5.96612378 L8.17708333,4.27752443 C8.17708333,3.72508143 8.5625,3.30814332 9.06770833,3.30814332 C9.578125,3.30814332 9.99479167,3.73550489 9.99479167,4.27752443 L9.99479167,4.27752443 L10,9.01498371 C10,9.60390879 9.60416667,10 9.01041667,10 L9.01041667,10 L4.27083333,9.99478827 C3.70833333,9.99478827 3.30208333,9.57263844 3.30208333,9.0723127 C3.30208333,8.55635179 3.72916667,8.18110749 4.27604167,8.18110749 L4.27604167,8.18110749 L5.9375,8.18110749 L6.953125,8.22801303 L6.16666667,7.51921824 L2.328125,3.6781759 C2.109375,3.45928339 2,3.20390879 2,2.95895765 C2,2.46905537 2.45833333,2 2.95833333,2 Z" id="Shape" fill="#E7725D"></path>
    </g>
</svg>