<?xml version="1.0" encoding="UTF-8"?>
<svg width="24px" height="24px" viewBox="0 0 24 24" version="1.1" xmlns="http://www.w3.org/2000/svg" xmlns:xlink="http://www.w3.org/1999/xlink">
    <!-- Generator: Sketch 63.1 (92452) - https://sketch.com -->
    <title>Icons / ic-fullscreen-on</title>
    <desc>Created with Sketch.</desc>
    <g id="Icons-/-ic-fullscreen-on" stroke="none" stroke-width="1" fill="none" fill-rule="evenodd">
        <path d="M14.9583333,14 C15.203125,14 15.4583333,14.1094463 15.6770833,14.3283388 L15.6770833,14.3283388 L19.515625,18.1693811 L20.2239583,18.9563518 L20.1770833,17.9661238 L20.1770833,16.2775244 C20.1770833,15.7250814 20.5625,15.3081433 21.0677083,15.3081433 C21.578125,15.3081433 21.9947917,15.7355049 21.9947917,16.2775244 L21.9947917,16.2775244 L22,21.0149837 C22,21.6039088 21.6041667,22 21.0104167,22 L21.0104167,22 L16.2708333,21.9947883 C15.7083333,21.9947883 15.3020833,21.5726384 15.3020833,21.0723127 C15.3020833,20.5563518 15.7291667,20.1811075 16.2760417,20.1811075 L16.2760417,20.1811075 L17.9375,20.1811075 L18.953125,20.228013 L18.1666667,19.5192182 L14.328125,15.6781759 C14.109375,15.4592834 14,15.2039088 14,14.9589577 C14,14.4690554 14.4583333,14 14.9583333,14 Z M2.98958333,2 L7.72916667,2.00521173 C8.29166667,2.00521173 8.69791667,2.42736156 8.69791667,2.9276873 C8.69791667,3.44364821 8.27083333,3.81889251 7.72395833,3.81889251 L7.72395833,3.81889251 L6.0625,3.81889251 L5.046875,3.77198697 L5.83333333,4.48078176 L9.671875,8.3218241 C9.890625,8.54071661 10,8.79609121 10,9.04104235 C10,9.53094463 9.54166667,10 9.04166667,10 C8.796875,10 8.54166667,9.89055375 8.32291667,9.67166124 L8.32291667,9.67166124 L4.484375,5.83061889 L3.77604167,5.04364821 L3.82291667,6.03387622 L3.82291667,7.72247557 C3.82291667,8.27491857 3.4375,8.69185668 2.93229167,8.69185668 C2.421875,8.69185668 2.00520833,8.26449511 2.00520833,7.72247557 L2.00520833,7.72247557 L2,2.98501629 C2,2.39609121 2.39583333,2 2.98958333,2 L2.98958333,2 Z" id="Shape" fill="#E7725D"></path>
    </g>
</svg>