<?xml version="1.0" encoding="UTF-8"?>
<svg width="24px" height="24px" viewBox="0 0 24 24" version="1.1" xmlns="http://www.w3.org/2000/svg" xmlns:xlink="http://www.w3.org/1999/xlink">
    <!-- Generator: Sketch 63.1 (92452) - https://sketch.com -->
    <title>Icons / ic-help</title>
    <desc>Created with Sketch.</desc>
    <g id="Icons-/-ic-help" stroke="none" stroke-width="1" fill="none" fill-rule="evenodd">
        <path d="M12,8.63972346e-07 C18.627244,8.63972346e-07 24,5.37160491 24,12.0000009 C24,18.6272446 18.627244,24.0000009 12,24.0000009 C5.3727563,24.0000009 0,18.6272446 0,12.0000009 C0,5.37160491 5.3727563,8.63972346e-07 12,8.63972346e-07 Z M11.7967742,15.8412256 C11.2935484,15.8412256 10.9064516,15.9809656 10.6354839,16.2604457 C10.3645161,16.5399257 10.2290323,16.9201486 10.2290323,17.4011142 C10.2290323,17.908078 10.3645161,18.3012999 10.6354839,18.5807799 C10.9064516,18.86026 11.2935484,19 11.7967742,19 C12.3,19 12.6870968,18.8635097 12.9580645,18.5905292 C13.2290323,18.3045497 13.3645161,17.908078 13.3645161,17.4011142 C13.3645161,16.9201486 13.2290323,16.5399257 12.9580645,16.2604457 C12.6870968,15.9809656 12.3,15.8412256 11.7967742,15.8412256 Z M12.0483871,5 C10.5774194,5 9.4516129,5.39322191 8.67096774,6.17966574 C7.94608295,6.909935 7.55775181,7.83354888 7.50597433,8.95050736 L7.5,9.21169916 L10.1322581,9.21169916 C10.1322581,7.93779016 10.7709677,7.30083565 12.0483871,7.30083565 C12.6548387,7.30083565 13.1032258,7.45032498 13.3935484,7.74930362 C13.683871,8.04828227 13.8290323,8.41225627 13.8290323,8.84122563 C13.8290323,9.19220056 13.7516129,9.48467967 13.5967742,9.71866295 C13.4677419,9.91364903 13.2670251,10.1266894 12.9946237,10.357784 L12.8225806,10.4986072 L12.2032258,10.9860724 C11.583871,11.4800371 11.1387097,11.9480037 10.8677419,12.3899721 C10.6268817,12.782833 10.4930705,13.3040797 10.4663082,13.9537123 L10.4612903,14.2033426 L10.4612903,14.5153203 L12.9774194,14.5153203 L12.9774194,14.2033426 C12.9774194,13.8003714 13.0645161,13.4786444 13.2387097,13.2381616 C13.391129,13.0277391 13.659627,12.7650664 14.0442036,12.4501436 L14.216129,12.3119777 L15.0290323,11.6685237 C16.0096774,10.9015785 16.5,9.91364903 16.5,8.70473538 C16.5,7.62581244 16.0935484,6.73862581 15.2806452,6.04317549 C14.4677419,5.34772516 13.3903226,5 12.0483871,5 Z" id="Shape" fill="#E7725D"></path>
    </g>
</svg>