<?xml version="1.0" encoding="UTF-8"?>
<svg width="24px" height="24px" viewBox="0 0 24 24" version="1.1" xmlns="http://www.w3.org/2000/svg" xmlns:xlink="http://www.w3.org/1999/xlink">
    <!-- Generator: Sketch 63.1 (92452) - https://sketch.com -->
    <title>Icons / ic-info</title>
    <desc>Created with Sketch.</desc>
    <g id="Icons-/-ic-info" stroke="none" stroke-width="1" fill="none" fill-rule="evenodd">
        <path d="M3.51451187,3.51451187 C-1.17150396,8.2005277 -1.17150396,15.7994723 3.51451187,20.4854881 C8.2005277,25.171504 15.7994723,25.171504 20.4854881,20.4854881 C25.171504,15.7994723 25.171504,8.2005277 20.4854881,3.51451187 C15.7994723,-1.17150396 8.2005277,-1.17150396 3.51451187,3.51451187 Z M12.4807599,5.03430079 C13.4939525,5.03430079 14.304304,5.87038734 14.304304,6.88357995 C14.304304,7.89677256 13.4682174,8.7328591 12.4807599,8.7328591 C11.4675673,8.7328591 10.6314807,7.89677256 10.6314807,6.85885805 C10.6324686,5.84467757 11.4675673,5.03430079 12.4807599,5.03430079 L12.4807599,5.03430079 Z M15.0899842,17.4200739 C15.0395221,17.5724479 14.9376101,17.7495641 14.836686,17.8504781 C14.1777055,18.5341805 13.3673541,18.9398628 12.4046185,18.9398628 C11.9484792,18.9398628 11.5180749,18.9398628 11.0619356,18.8636758 C10.3277763,18.7627517 9.38976253,17.8504832 9.51641161,16.8877475 C9.61733573,16.2287671 9.7192477,15.5707998 9.82016675,14.9118193 C10.0230028,13.7719776 10.2258491,12.6064008 10.427677,11.4664578 C10.427677,11.3902708 10.453402,11.3140838 10.453402,11.2388846 C10.453402,10.7580234 10.301028,10.5799042 9.82015662,10.5294472 C9.61732053,10.5037222 9.4144743,10.4789851 9.21264633,10.4285231 C8.98507314,10.352336 8.8584342,10.1494898 8.88315609,9.97238375 C8.90888106,9.76954765 9.03553013,9.64289351 9.28883842,9.59243652 C9.41548749,9.56671156 9.56787166,9.56671156 9.71924264,9.56671156 L11.4161376,9.56671156 L13.2149598,9.56671156 C13.645364,9.56671156 13.8986622,9.76954765 13.8986622,10.1999569 C13.8986622,10.5541691 13.8482001,10.9093944 13.7720131,11.2636065 C13.5444399,12.5805543 13.2911519,13.8728308 13.0625756,15.1897279 C12.9863886,15.6201321 12.8854645,16.0505364 12.8350024,16.4819538 C12.8092775,16.6847899 12.8350024,16.912358 12.8854645,17.1151992 C12.9616515,17.3942324 13.1644977,17.5456034 13.4425178,17.5208815 C13.670091,17.4951565 13.8986571,17.4199574 14.1262202,17.3180454 C14.3033313,17.2418584 14.4557104,17.1152093 14.6328165,17.0647472 C14.9385473,16.9648135 15.1661357,17.1419246 15.0899436,17.4199472 L15.0899842,17.4200739 Z" id="Shape" fill="#E7725D"></path>
    </g>
</svg>