<?xml version="1.0" encoding="UTF-8"?>
<svg width="24px" height="24px" viewBox="0 0 24 24" version="1.1" xmlns="http://www.w3.org/2000/svg" xmlns:xlink="http://www.w3.org/1999/xlink">
    <!-- Generator: Sketch 63.1 (92452) - https://sketch.com -->
    <title>Icons / ic-mod</title>
    <desc>Created with Sketch.</desc>
    <g id="Icons-/-ic-mod" stroke="none" stroke-width="1" fill="none" fill-rule="evenodd">
        <path d="M10.082989,9.02885036 C10.3712029,10.2137339 10.9790107,11.2979504 11.8389939,12.1623447 C12.700857,13.0267721 13.7862468,13.6344393 14.9741477,13.9179527 L14.9741477,13.9179527 L14.9741477,13.918877 L4.80862499,21.8249571 C4.47607231,22.0816955 4.00496981,22.0530652 3.7047667,21.7584643 L3.7047667,21.7584643 L2.24158693,20.2956232 C1.94691896,19.9954659 1.91829148,19.5244724 2.17507876,19.1920203 L2.17507876,19.1920203 Z M16.5102914,2.0000011 C17.9670154,1.99908016 19.3645265,2.57903904 20.3927133,3.61060505 C21.4217514,4.64032699 22,6.03673444 22,7.49212837 C22,8.94752231 21.4217514,10.3438115 20.3927133,11.3736517 C19.3645975,12.4052177 17.9669681,12.9842546 16.5102914,12.9842546 C15.0535673,12.9842546 13.6570022,12.4052177 12.6278719,11.3736517 C11.5997537,10.3439298 11.021505,8.94752231 11.021505,7.49212837 C11.021505,6.03673444 11.5997537,4.6404452 12.6278719,3.61060505 C13.6569099,2.57903904 15.053617,2.0000011 16.5102914,2.0000011 Z" id="Shape" fill="#E7725D"></path>
    </g>
</svg>