<?xml version="1.0" encoding="UTF-8"?>
<svg width="24px" height="24px" viewBox="0 0 24 24" version="1.1" xmlns="http://www.w3.org/2000/svg" xmlns:xlink="http://www.w3.org/1999/xlink">
    <!-- Generator: Sketch 63.1 (92452) - https://sketch.com -->
    <title>Icons / ic-no-rewind</title>
    <desc>Created with Sketch.</desc>
    <g id="Icons-/-ic-no-rewind" stroke="none" stroke-width="1" fill="none" fill-rule="evenodd">
        <path d="M21.3994949,2.10050506 C21.7900192,2.49102936 21.7900192,3.12419433 21.3994949,3.51471863 L3.01471863,21.8994949 C2.62419433,22.2900192 1.99102936,22.2900192 1.60050506,21.8994949 C1.20998077,21.5089706 1.20998077,20.8758057 1.60050506,20.4852814 L19.9852814,2.10050506 C20.3758057,1.70998077 21.0089706,1.70998077 21.3994949,2.10050506 Z M20.8223769,5.50718258 C20.9150387,5.65738537 20.9767558,5.83512463 20.9946354,6.03232274 L21,6.15178048 L21,17.8482206 C21,18.6995826 20.197207,19.2417206 19.5190694,18.8925535 L19.4231408,18.8365463 L14,15.278 L14,17.8482206 C14,18.6995826 13.197207,19.2417206 12.5190694,18.8925535 L12.4231408,18.8365463 L9.445,16.882 L20.8223769,5.50718258 Z M13.9946354,6.03232274 L14,6.15178048 L14,6.672 L6.03,14.642 L3.50975366,12.9876929 C2.86784164,12.5671108 2.83217986,11.5761692 3.40276833,11.0916802 L3.50975366,11.0116587 L12.4231408,5.16345481 C13.0867267,4.72808154 13.9202331,5.21172416 13.9946354,6.03232274 Z" id="Shape" fill="#E7725D"></path>
    </g>
</svg>