<?xml version="1.0" encoding="UTF-8"?>
<svg width="24px" height="24px" viewBox="0 0 24 24" version="1.1" xmlns="http://www.w3.org/2000/svg" xmlns:xlink="http://www.w3.org/1999/xlink">
    <!-- Generator: Sketch 63.1 (92452) - https://sketch.com -->
    <title>Icons / ic-no-recording</title>
    <desc>Created with Sketch.</desc>
    <g id="Icons-/-ic-no-recording" stroke="none" stroke-width="1" fill="none" fill-rule="evenodd">
        <path d="M21.3994949,2.10050506 C21.7900192,2.49102936 21.7900192,3.12419433 21.3994949,3.51471863 L3.01471863,21.8994949 C2.62419433,22.2900192 1.99102936,22.2900192 1.60050506,21.8994949 C1.20998077,21.5089706 1.20998077,20.8758057 1.60050506,20.4852814 L19.9852814,2.10050506 C20.3758057,1.70998077 21.0089706,1.70998077 21.3994949,2.10050506 Z M20.1391365,6.18850989 C21.3105924,7.82628386 22,9.83250902 22,12 C22,17.5227031 17.5227033,22 12,22 C9.83288581,22 7.82674173,21.3105924 6.18892719,20.1391365 L9.20599618,17.1218923 C10.0357256,17.5754862 10.9877604,17.8333333 12.0000001,17.8333333 C15.2215769,17.8333333 17.8333333,15.2215771 17.8333333,12.0000001 C17.8333333,10.9875845 17.5754862,10.0354843 17.1218923,9.20574792 L20.1391365,6.18850989 Z M12,2 C13.9086214,2 15.6923834,2.53463687 17.2096291,3.46237262 L14.1115782,6.56053296 C13.4567878,6.30619071 12.7446862,6.16666667 12.0000001,6.16666667 C8.7784232,6.16666667 6.16666667,8.77786317 6.16666667,12.0000001 C6.16666667,12.7446863 6.30622064,13.4567879 6.56060198,14.1115783 L3.46259777,17.2096289 C2.53475155,15.6923833 2,13.9086213 2,12 C2,6.4763367 6.47729691,2 12,2 Z M15.2142634,11.113868 C15.2918782,11.3960326 15.3333333,11.6931751 15.3333333,12 C15.3333333,13.8409492 13.8409492,15.3333333 12,15.3333333 C11.6931751,15.3333333 11.3960326,15.2918782 11.113868,15.2142634 L15.2142634,11.113868 Z M12.005,8.666 L8.66667042,12.0050567 L8.66666667,12 C8.66666667,10.1590508 10.1590508,8.66666667 12,8.66666667 L12.005,8.666 Z" id="Shape" fill="#E7725D"></path>
    </g>
</svg>