<?xml version="1.0" encoding="UTF-8"?>
<svg width="24px" height="24px" viewBox="0 0 24 24" version="1.1" xmlns="http://www.w3.org/2000/svg" xmlns:xlink="http://www.w3.org/1999/xlink">
    <!-- Generator: Sketch 63.1 (92452) - https://sketch.com -->
    <title>Icons / ic-pip-off</title>
    <desc>Created with Sketch.</desc>
    <g id="Icons-/-ic-pip-off" stroke="none" stroke-width="1" fill="none" fill-rule="evenodd">
        <path d="M20.4361148,14 C21.3276335,14 21.6509198,14.0928256 21.9768457,14.2671327 C22.3027716,14.4414398 22.5585602,14.6972284 22.7328673,15.0231543 C22.9071744,15.3490802 23,15.6723665 23,16.5638852 L23,19.4361148 C23,20.3276335 22.9071744,20.6509198 22.7328673,20.9768457 C22.5585602,21.3027716 22.3027716,21.5585602 21.9768457,21.7328673 C21.6509198,21.9071744 21.3276335,22 20.4361148,22 L13.5638852,22 C12.6723665,22 12.3490802,21.9071744 12.0231543,21.7328673 C11.6972284,21.5585602 11.4414398,21.3027716 11.2671327,20.9768457 C11.0928256,20.6509198 11,20.3276335 11,19.4361148 L11,16.5638852 C11,15.6723665 11.0928256,15.3490802 11.2671327,15.0231543 C11.4414398,14.6972284 11.6972284,14.4414398 12.0231543,14.2671327 C12.3490802,14.0928256 12.6723665,14 13.5638852,14 L20.4361148,14 Z M19,3 C20.1045695,3 21,3.8954305 21,5 L21,13 L19,13 L19,5 L4,5 L4,15 L9.01677591,14.9992806 C9.00843053,15.1187825 9.00316677,15.2529146 9.00105648,15.405292 L9,15.5638852 L9,17 L4,17 C2.8954305,17 2,16.1045695 2,15 L2,5 C2,3.8954305 2.8954305,3 4,3 L19,3 Z M6.73828125,7.18359375 L10.2929688,7.1875 C10.7148438,7.1875 11.0195312,7.50390625 11.0195312,7.87890625 C11.0195312,8.265625 10.6992188,8.546875 10.2890625,8.546875 L10.2890625,8.546875 L9.04296875,8.546875 L8.28125,8.51171875 L8.87109375,9.04296875 L11.75,11.921875 C11.9140625,12.0859375 11.9960938,12.2773438 11.9960938,12.4609375 C11.9960938,12.828125 11.6523438,13.1796875 11.2773438,13.1796875 C11.09375,13.1796875 10.9023438,13.0976562 10.7382812,12.9335938 L10.7382812,12.9335938 L7.859375,10.0546875 L7.328125,9.46484375 L7.36328125,10.2070312 L7.36328125,11.4726562 C7.36328125,11.8867188 7.07421875,12.1992188 6.6953125,12.1992188 C6.3125,12.1992188 6,11.8789062 6,11.4726562 L6,11.4726562 L5.99609375,7.921875 C5.99609375,7.48046875 6.29296875,7.18359375 6.73828125,7.18359375 L6.73828125,7.18359375 Z" id="Shape" fill="#E7725D"></path>
    </g>
</svg>