<?xml version="1.0" encoding="UTF-8"?>
<svg width="24px" height="24px" viewBox="0 0 24 24" version="1.1" xmlns="http://www.w3.org/2000/svg" xmlns:xlink="http://www.w3.org/1999/xlink">
    <!-- Generator: Sketch 63.1 (92452) - https://sketch.com -->
    <title>Icons / ic-placeholder</title>
    <desc>Created with Sketch.</desc>
    <g id="Icons-/-ic-placeholder" stroke="none" stroke-width="1" fill="none" fill-rule="evenodd">
        <path d="M5.1277704,-2.07168062e-16 L18.8722296,2.07168062e-16 C20.6552671,-1.2037061e-16 21.3018396,0.185651222 21.9536914,0.534265408 C22.6055433,0.882879593 23.1171204,1.39445674 23.4657346,2.04630859 C23.8143488,2.69816044 24,3.34473292 24,5.1277704 L24,18.8722296 C24,20.6552671 23.8143488,21.3018396 23.4657346,21.9536914 C23.1171204,22.6055433 22.6055433,23.1171204 21.9536914,23.4657346 C21.3018396,23.8143488 20.6552671,24 18.8722296,24 L5.1277704,24 C3.34473292,24 2.69816044,23.8143488 2.04630859,23.4657346 C1.39445674,23.1171204 0.882879593,22.6055433 0.534265408,21.9536914 C0.185651222,21.3018396 8.02470732e-17,20.6552671 -1.38112041e-16,18.8722296 L1.38112041e-16,5.1277704 C-8.02470732e-17,3.34473292 0.185651222,2.69816044 0.534265408,2.04630859 C0.882879593,1.39445674 1.39445674,0.882879593 2.04630859,0.534265408 C2.69816044,0.185651222 3.34473292,1.2037061e-16 5.1277704,-2.07168062e-16 Z" id="Shape" fill="#E7725D"></path>
    </g>
</svg>