<?xml version="1.0" encoding="UTF-8"?>
<svg width="24px" height="24px" viewBox="0 0 24 24" version="1.1" xmlns="http://www.w3.org/2000/svg" xmlns:xlink="http://www.w3.org/1999/xlink">
    <!-- Generator: Sketch 63.1 (92452) - https://sketch.com -->
    <title>Icons / ic-pip-on</title>
    <desc>Created with Sketch.</desc>
    <g id="Icons-/-ic-pip-on" stroke="none" stroke-width="1" fill="none" fill-rule="evenodd">
        <path d="M20.4361148,14 C21.3276335,14 21.6509198,14.0928256 21.9768457,14.2671327 C22.3027716,14.4414398 22.5585602,14.6972284 22.7328673,15.0231543 C22.9071744,15.3490802 23,15.6723665 23,16.5638852 L23,19.4361148 C23,20.3276335 22.9071744,20.6509198 22.7328673,20.9768457 C22.5585602,21.3027716 22.3027716,21.5585602 21.9768457,21.7328673 C21.6509198,21.9071744 21.3276335,22 20.4361148,22 L13.5638852,22 C12.6723665,22 12.3490802,21.9071744 12.0231543,21.7328673 C11.6972284,21.5585602 11.4414398,21.3027716 11.2671327,20.9768457 C11.0928256,20.6509198 11,20.3276335 11,19.4361148 L11,16.5638852 C11,15.6723665 11.0928256,15.3490802 11.2671327,15.0231543 C11.4414398,14.6972284 11.6972284,14.4414398 12.0231543,14.2671327 C12.3490802,14.0928256 12.6723665,14 13.5638852,14 L20.4361148,14 Z M19,3 C20.1045695,3 21,3.8954305 21,5 L21,13 L19,13 L19,5 L4,5 L4,15 L9.01677591,14.9992806 C9.00843053,15.1187825 9.00316677,15.2529146 9.00105648,15.405292 L9,15.5638852 L9,17 L4,17 C2.8954305,17 2,16.1045695 2,15 L2,5 C2,3.8954305 2.8954305,3 4,3 L19,3 Z M6.71484375,7.18359375 C6.8984375,7.18359375 7.08984375,7.265625 7.25390625,7.4296875 L7.25390625,7.4296875 L10.1328125,10.3085938 L10.6640625,10.8984375 L10.6289062,10.15625 L10.6289062,8.890625 C10.6289062,8.4765625 10.9179688,8.1640625 11.296875,8.1640625 C11.6796875,8.1640625 11.9921875,8.484375 11.9921875,8.890625 L11.9921875,8.890625 L11.9960938,12.4414062 C11.9960938,12.8828125 11.6992188,13.1796875 11.2539062,13.1796875 L11.2539062,13.1796875 L7.69921875,13.1757812 C7.27734375,13.1757812 6.97265625,12.859375 6.97265625,12.484375 C6.97265625,12.0976562 7.29296875,11.8164062 7.703125,11.8164062 L7.703125,11.8164062 L8.94921875,11.8164062 L9.7109375,11.8515625 L9.12109375,11.3203125 L6.2421875,8.44140625 C6.078125,8.27734375 5.99609375,8.0859375 5.99609375,7.90234375 C5.99609375,7.53515625 6.33984375,7.18359375 6.71484375,7.18359375 Z" id="Shape" fill="#E7725D"></path>
    </g>
</svg>