<?xml version="1.0" encoding="UTF-8"?>
<svg width="24px" height="24px" viewBox="0 0 24 24" version="1.1" xmlns="http://www.w3.org/2000/svg" xmlns:xlink="http://www.w3.org/1999/xlink">
    <!-- Generator: Sketch 63.1 (92452) - https://sketch.com -->
    <title>Icons / ic-pause</title>
    <desc>Created with Sketch.</desc>
    <g id="Icons-/-ic-pause" stroke="none" stroke-width="1" fill="none" fill-rule="evenodd">
        <path d="M8.66666667,2 C9.58714125,2 10.3333333,2.74619208 10.3333333,3.66666667 L10.3333333,20.3333333 C10.3333333,21.2538079 9.58714125,22 8.66666667,22 L6.16666667,22 C5.24619208,22 4.5,21.2538079 4.5,20.3333333 L4.5,3.66666667 C4.5,2.74619208 5.24619208,2 6.16666667,2 L8.66666667,2 Z M17.8333333,2 C18.7538079,2 19.5,2.74619208 19.5,3.66666667 L19.5,20.3333333 C19.5,21.2538079 18.7538079,22 17.8333333,22 L15.3333333,22 C14.4128588,22 13.6666667,21.2538079 13.6666667,20.3333333 L13.6666667,3.66666667 C13.6666667,2.74619208 14.4128588,2 15.3333333,2 L17.8333333,2 Z" id="Shape" fill="#E7725D"></path>
    </g>
</svg>