<?xml version="1.0" encoding="UTF-8"?>
<svg width="24px" height="24px" viewBox="0 0 24 24" version="1.1" xmlns="http://www.w3.org/2000/svg" xmlns:xlink="http://www.w3.org/1999/xlink">
    <!-- Generator: Sketch 63.1 (92452) - https://sketch.com -->
    <title>Icons / ic-search</title>
    <desc>Created with Sketch.</desc>
    <g id="Icons-/-ic-search" stroke="none" stroke-width="1" fill="none" fill-rule="evenodd">
        <path d="M23.3694353,20.3223377 L18.3571433,15.3100457 C19.34605,13.7625816 19.9275228,11.9317038 19.9275228,9.96322745 C19.9264797,4.46942039 15.4570353,0 9.96429532,0 C4.46942119,0 0,4.46942039 0,9.96322745 C0,15.4570345 4.46942119,19.9264549 9.96322825,19.9264549 C11.9316779,19.9264549 13.762529,19.3449821 15.3100465,18.3560755 L20.3223385,23.3683674 C20.743324,23.7883126 21.2945721,23.998819 21.8458202,23.998819 C22.3970683,23.998819 22.9483164,23.7883236 23.3693019,23.3683674 C24.2102327,22.5274367 24.2102327,21.1633751 23.3693019,20.3224177 L23.3694353,20.3223377 Z M4.30917404,9.96322745 C4.30917404,6.84525052 6.84658516,4.30802614 9.96437535,4.30802614 C13.0821655,4.30802614 15.6185096,6.84439687 15.6185096,9.96322745 C15.6185096,13.0812044 13.0810985,15.6184288 9.96437535,15.6184288 C6.84559812,15.6184288 4.30917404,13.082058 4.30917404,9.96322745 Z" id="Shape" fill="#E7725D"></path>
    </g>
</svg>