<?xml version="1.0" encoding="UTF-8"?>
<svg width="24px" height="24px" viewBox="0 0 24 24" version="1.1" xmlns="http://www.w3.org/2000/svg" xmlns:xlink="http://www.w3.org/1999/xlink">
    <!-- Generator: Sketch 63.1 (92452) - https://sketch.com -->
    <title>Icons / ic-smiley</title>
    <desc>Created with Sketch.</desc>
    <g id="Icons-/-ic-smiley" stroke="none" stroke-width="1" fill="none" fill-rule="evenodd">
        <path d="M12,2 C14.6516446,2 17.1953734,3.05303289 19.0703577,4.92964225 C20.9469671,6.80462663 22,9.34835543 22,12 C22,14.6516446 20.9469671,17.1953734 19.0703577,19.0703577 C17.1953734,20.9469671 14.6516446,22 12,22 C9.34835543,22 6.80462663,20.9469671 4.92964225,19.0703577 C3.05303289,17.1953734 2,14.6516446 2,12 C2,9.34835543 3.05303289,6.80462663 4.92964225,4.92964225 C6.80462663,3.05303289 9.34864709,2 12,2 Z M15.3332931,12.8332431 L8.66669444,12.8332431 C8.40953409,12.8332431 8.16703194,12.9520587 8.00915826,13.1538779 C7.85128041,13.3573262 7.79594337,13.620999 7.85779285,13.8700386 L8.08239931,14.7749894 L8.08402847,14.7749894 C8.53323306,16.5718494 10.1478029,17.8315889 11.9999958,17.8315889 C13.8521887,17.8315889 15.4667586,16.5718494 15.9159632,14.7749894 L16.1405697,13.8700386 L16.1421946,13.8700386 C16.2040441,13.6210157 16.1487071,13.3573345 15.9908292,13.1538779 C15.8329514,12.9520546 15.5904409,12.8332431 15.3332931,12.8332431 Z M8.66671111,6.999975 C7.28651428,6.999975 6.16673194,8.11975734 6.16673194,9.49995417 C6.16673194,9.96057533 6.53944967,10.3332806 7.00005833,10.3332806 C7.46066699,10.3332806 7.83338472,9.96056283 7.83338472,9.49995417 C7.83338472,9.03934551 8.20610245,8.66662778 8.66671111,8.66662778 C8.88804677,8.66661111 9.09964917,8.75450205 9.25589787,8.91075074 C9.41214657,9.06699944 9.5000375,9.27858518 9.5000375,9.49995417 C9.5000375,9.96057533 9.87275523,10.3332806 10.3333639,10.3332806 C10.7939726,10.3332806 11.1666903,9.96056283 11.1666903,9.49995417 C11.1666903,8.11975734 10.0469079,6.999975 8.66671111,6.999975 Z M15.3333056,6.99995833 C13.9531087,6.99995833 12.8333264,8.11974067 12.8333264,9.4999375 C12.8333264,9.96055866 13.2060441,10.3332639 13.6666528,10.3332639 C14.1272614,10.3332639 14.4999792,9.96054616 14.4999792,9.4999375 C14.4999792,9.03932884 14.8726969,8.66661111 15.3333056,8.66661111 C15.7939142,8.66661111 16.1666319,9.03932884 16.1666319,9.4999375 C16.1666319,9.96054616 16.5393497,10.3332639 16.9999583,10.3332639 C17.460567,10.3332639 17.8332847,9.96054616 17.8332847,9.4999375 C17.8332847,8.11974067 16.7135024,6.99995833 15.3333056,6.99995833 Z" id="Combined-Shape" fill="#E7725D"></path>
    </g>
</svg>