<?xml version="1.0" encoding="UTF-8"?>
<svg width="24px" height="24px" viewBox="0 0 24 24" version="1.1" xmlns="http://www.w3.org/2000/svg" xmlns:xlink="http://www.w3.org/1999/xlink">
    <!-- Generator: Sketch 63.1 (92452) - https://sketch.com -->
    <title>Icons / ic-ticket</title>
    <desc>Created with Sketch.</desc>
    <g id="Icons-/-ic-ticket" stroke="none" stroke-width="1" fill="none" fill-rule="evenodd">
        <path d="M23.5606928,7.95713792 L22.0598482,6.45629331 C20.8122661,7.7038754 18.7902749,7.7038754 17.5437067,6.45629331 C16.2961246,5.20871123 16.2961246,3.18672001 17.5437067,1.94015183 L16.0428621,0.439307223 C15.4571191,-0.146435741 14.4982328,-0.146435741 13.9124899,0.439307223 L0.439307223,13.9124893 C-0.146435741,14.4982323 -0.146435741,15.4571186 0.439307223,16.0428615 L1.94015236,17.5437062 C3.18773445,16.2961241 5.20972567,16.2961241 6.45629385,17.5437062 C7.70387593,18.7912882 7.70387593,20.8132795 6.45629385,22.0598476 L7.95713846,23.5606917 C8.54288142,24.1464347 9.50176771,24.1464347 10.0875107,23.5606917 L23.5606928,10.0875101 C24.1464357,9.50176717 24.1464357,8.54288089 23.5606928,7.95713792 Z M6.89824923,12.3105211 C6.53657903,12.8785475 5.72572272,12.8785475 5.36405252,12.3105211 C5.18165921,12.0239065 5.18165921,11.6455603 5.36405252,11.3599862 C5.72572272,10.7919599 6.53657903,10.7909193 6.89928981,11.3599862 C7.08168312,11.6466009 7.08064254,12.0249471 6.89824656,12.3105211 L6.89824923,12.3105211 Z M8.95564704,14.367919 C8.59397684,14.9359453 7.78312053,14.9359453 7.42145033,14.367919 C7.23905702,14.0813043 7.23905702,13.7029581 7.42145033,13.417384 C7.78312053,12.8493577 8.59397417,12.8483171 8.95668763,13.417384 C9.13804035,13.7039987 9.13804035,14.0823449 8.95564437,14.367919 L8.95564704,14.367919 Z M11.0130422,16.4253168 C10.6513747,16.9933431 9.84051834,16.9933431 9.47884547,16.4253168 C9.29645216,16.1387021 9.29645216,15.7603559 9.47884547,15.4747819 C9.84051567,14.9067555 10.651372,14.9057149 11.0140854,15.4747819 C11.1954382,15.7603559 11.1954382,16.1387021 11.0130422,16.4253168 Z M13.07044,18.4827146 C12.7087698,19.0507409 11.8979162,19.0507409 11.5362433,18.4827146 C11.35385,18.1961 11.35385,17.8177537 11.5362433,17.5321797 C11.8979135,16.9641533 12.7087698,16.9631128 13.0714806,17.5321797 C13.2528333,17.8177537 13.2528333,18.1961 13.07044,18.4827146 Z" id="Shapoe" fill="#E7725D"></path>
    </g>
</svg>