<?xml version="1.0" encoding="UTF-8"?>
<svg width="48px" height="48px" viewBox="0 0 48 48" version="1.1" xmlns="http://www.w3.org/2000/svg" xmlns:xlink="http://www.w3.org/1999/xlink">
    <!-- Generator: Sketch 63.1 (92452) - https://sketch.com -->
    <title>Corporate / Logo / Icon / White</title>
    <desc>Created with Sketch.</desc>
    <defs>
        <path d="M24,-2.48601674e-15 C37.254834,-4.92089024e-15 48,10.745166 48,24 C48,37.254834 37.254834,48 24,48 C10.745166,48 -3.40954897e-17,37.254834 -1.65734449e-15,24 C-3.2805935e-15,10.745166 10.745166,-5.11432346e-17 24,-2.48601674e-15 Z M24.741917,8.03175848 C23.7902188,8.03175848 23.0187149,8.80326235 23.0187149,9.7549606 L23.0187149,9.7549606 L23.019182,27.7265539 C21.8582479,26.780364 20.3845192,26.214383 18.7807476,26.214383 C15.0358441,26.214383 12,29.3003985 12,33.1071915 C12,36.9139845 15.0358441,40 18.7807476,40 L18.7807476,40 L19.0138598,39.9960031 C22.650827,39.8711032 25.5614953,36.8346763 25.5614953,33.1071915 L25.5614953,33.1071915 L25.559,32.9687585 L25.5614953,32.9687926 L25.561,23.8317585 L35.1736738,18.0846433 C35.376248,17.9635127 35.5517784,17.8020581 35.6893805,17.610291 C36.2442128,16.8370572 36.0671635,15.7604468 35.2939296,15.2056144 L35.2939296,15.2056144 L25.7465299,8.35489687 C25.4536932,8.14477249 25.1023412,8.03175848 24.741917,8.03175848 Z" id="path-1"></path>
    </defs>
    <g id="Corporate-/-Logo-/-Icon-/-White" stroke="none" stroke-width="1" fill="none" fill-rule="evenodd">
        <mask id="mask-2" fill="white">
            <use xlink:href="#path-1"></use>
        </mask>
        <use id="Shape" fill="#FFFFFF" xlink:href="#path-1"></use>
    </g>
</svg>